<svg xmlns="http://www.w3.org/2000/svg" viewBox="0 0 134.41 183.07"><defs><style>.cls-1{fill:none;stroke:#000;stroke-miterlimit:10;}</style></defs><title>Untitled-2</title><g id="Layer_1" data-name="Layer 1"><path d="M103,15A25,25,0,1,1,78,40a25,25,0,0,1,25-25m0-1a26,26,0,1,0,26,26,26,26,0,0,0-26-26Z" transform="translate(-37.78 -14)"/></g><g id="Layer_2" data-name="Layer 2"><path class="cls-1" d="M112.93,64s-1.43,6.47.57,9.47,30,1,31,4,14,36,16,35,6-41,5-42,5-9,6,0-2,47-9,52-18-23-20-30c-1,4,0,46-2,52s-22,50-28,52-42-37-43-42,0-56-3-54-21,26-21,30,5,34,3,36-4,1-5-1-8-36-4-41,21-36,23-37,9-14,30-14c0-1,.56-9.47.56-9.47" transform="translate(-37.78 -14)"/></g></svg>