<?xml version="1.0" encoding="utf-8"?>
<!-- Generator: Adobe Illustrator 22.1.0, SVG Export Plug-In . SVG Version: 6.00 Build 0)  -->
<svg version="1.1" xmlns="http://www.w3.org/2000/svg" xmlns:xlink="http://www.w3.org/1999/xlink" x="0px" y="0px"
	 viewBox="0 0 200 200" style="enable-background:new 0 0 200 200;" xml:space="preserve">
<style type="text/css">
	.st0{fill:none;stroke:#000000;stroke-miterlimit:10;}
</style>
<g id="Layer_1">
	<g>
		<path d="M103,15c13.8,0,25,11.2,25,25s-11.2,25-25,25S78,53.8,78,40S89.2,15,103,15 M103,14c-14.4,0-26,11.6-26,26s11.6,26,26,26
			s26-11.6,26-26S117.4,14,103,14L103,14z"/>
	</g>
</g>
<g id="Layer_2">
	<path class="st0" d="M112.9,64c0,0-1.4,6.5,0.6,9.5s30,1,31,4s14,36,16,35s6-41,5-42s5-9,6,0s-2,47-9,52s-18-23-20-30
		c-1,4,0,46-2,52s-22,50-28,52s-42-37-43-42s0-56-3-54s-21,26-21,30s5,34,3,36s-4,1-5-1s-8-36-4-41s21-36,23-37s9-14,30-14
		c0-1,0.6-9.5,0.6-9.5"/>
</g>
</svg>
